<svg width="101" height="100" viewBox="0 0 101 100" fill="none" xmlns="http://www.w3.org/2000/svg">
<path d="M17.1598 43.3529L7.43762 60.1925L18.0252 75.1875L31.5936 51.6863L27.1545 42.7083L17.1598 43.3529Z" fill="url(#paint0_linear_2334_72926)"/>
<path d="M62.3054 85.4167H81.75L89.4425 68.75H62.3054L56.75 77.0833L62.3054 85.4167Z" fill="url(#paint1_linear_2334_72926)"/>
<path d="M62.9838 31.4128L50.5 8.33334H69.25L77.8438 25.3743L73.4492 33.3333L62.9838 31.4128Z" fill="url(#paint2_linear_2334_72926)"/>
<path d="M75.5 50L85.9167 43.75L94.25 58.3333L89.4425 68.75M62.3054 85.4167H81.75L89.4425 68.75M69.25 95.8333L56.75 77.0833L69.25 58.3333M62.3054 68.75H89.4425" stroke="white" stroke-width="1.5"/>
<path d="M41.2345 72.4879L41.4388 84.6342L24.6426 84.5592L18.0253 75.1875M17.16 43.3529L7.43771 60.1925L18.0253 75.1875M17.16 43.3529L4.66663 44.1588M17.16 43.3529L27.1546 42.7083L31.5937 51.6863M31.5937 51.6863L37.1426 62.9088M31.5937 51.6863L18.0253 75.1875" stroke="white" stroke-width="1.5"/>
<path d="M40.0833 29.1667L29.6666 22.9167L40.0833 8.33334H50.5M77.8325 25.3848L69.25 8.33334H50.5M50.5 8.33334L63 31.4394M50.5 29.1667L73.4166 33.3333L83.8333 14.5833" stroke="white" stroke-width="1.5"/>
<defs>
<linearGradient id="paint0_linear_2334_72926" x1="19.5156" y1="42.7083" x2="19.5156" y2="75.1875" gradientUnits="userSpaceOnUse">
<stop stopColor="white" stop-opacity="0"/>
<stop offset="0.5" stopColor="white" stop-opacity="0.2"/>
<stop offset="1" stopColor="white" stop-opacity="0.5"/>
</linearGradient>
<linearGradient id="paint1_linear_2334_72926" x1="62.2647" y1="73.5294" x2="83.8333" y2="93.1373" gradientUnits="userSpaceOnUse">
<stop stopColor="white" stop-opacity="0.6"/>
<stop offset="0.555" stopColor="white" stop-opacity="0.1"/>
<stop offset="1" stopColor="white" stop-opacity="0"/>
</linearGradient>
<linearGradient id="paint2_linear_2334_72926" x1="64.1719" y1="8.33334" x2="64.1719" y2="33.3333" gradientUnits="userSpaceOnUse">
<stop stopColor="white" stop-opacity="0"/>
<stop offset="0.445" stopColor="white" stop-opacity="0.1"/>
<stop offset="1" stopColor="white" stop-opacity="0.6"/>
</linearGradient>
</defs>
</svg>
