<svg width="101" height="100" viewBox="0 0 101 100" fill="none" xmlns="http://www.w3.org/2000/svg">
<path d="M8.16699 47.5C8.16699 58.1087 12.3813 68.2828 19.8827 75.7843C27.3842 83.2857 37.5583 87.5 48.167 87.5C58.7757 87.5 68.9498 83.2857 76.4513 75.7843C83.9527 68.2828 88.167 58.1087 88.167 47.5C88.167 36.8913 83.9527 26.7172 76.4513 19.2157C68.9498 11.7143 58.7757 7.5 48.167 7.5C37.5583 7.5 27.3842 11.7143 19.8827 19.2157C12.3813 26.7172 8.16699 36.8913 8.16699 47.5Z" fill="url(#paint0_linear_2334_73019)"/>
<path d="M8.16699 47.5C8.16699 58.1087 12.3813 68.2828 19.8827 75.7843C27.3842 83.2857 37.5583 87.5 48.167 87.5C58.7757 87.5 68.9498 83.2857 76.4513 75.7843C83.9527 68.2828 88.167 58.1087 88.167 47.5C88.167 36.8913 83.9527 26.7172 76.4513 19.2157C68.9498 11.7143 58.7757 7.5 48.167 7.5C37.5583 7.5 27.3842 11.7143 19.8827 19.2157C12.3813 26.7172 8.16699 36.8913 8.16699 47.5Z" stroke="white" stroke-width="1.5"/>
<path d="M36.167 41.5H48.167V65.5" stroke="white" stroke-width="3"/>
<path d="M36.167 65.5H60.167" stroke="white" stroke-width="3"/>
<path d="M48.167 31.5V25.5" stroke="white" stroke-width="3"/>
<defs>
<linearGradient id="paint0_linear_2334_73019" x1="48" y1="-12.5" x2="48.167" y2="87.5" gradientUnits="userSpaceOnUse">
<stop stopColor="white" stop-opacity="0.8"/>
<stop offset="1" stopColor="white" stop-opacity="0"/>
</linearGradient>
</defs>
</svg>
