<svg width="101" height="100" viewBox="0 0 101 100" fill="none" xmlns="http://www.w3.org/2000/svg">
<path d="M30.95 52.3417L29.25 62.8958L22.2375 64.5958L9.77084 77.0625V91.2292H23.9375L36.4042 78.7625L38.1042 71.75L48.6583 70.05L30.95 52.3417Z" fill="url(#paint0_linear_2334_73005)" stroke="white" stroke-width="1.5" stroke-miterlimit="10" stroke-linecap="round" stroke-linejoin="bevel"/>
<path d="M39.8041 61.1958L71.75 29.25" stroke="white" stroke-width="1.5" stroke-miterlimit="10" stroke-linecap="round" stroke-linejoin="bevel"/>
<path d="M71.75 29.25L85.9167 25.7083L91.2292 15.0833L85.9167 9.77084L75.2917 15.0833L71.75 29.25Z" fill="url(#paint1_linear_2334_73005)" stroke="white" stroke-width="1.5" stroke-miterlimit="10" stroke-linecap="round" stroke-linejoin="bevel"/>
<path d="M48.7292 41.6458L36.3333 29.25L34.5625 16.8542L27.4792 9.77084H16.8542L23.9375 16.8542V23.9375H16.8542L9.77084 16.8542V27.4792L15.0833 34.5625L29.25 36.3333L41.6458 48.7292" fill="url(#paint2_linear_2334_73005)"/>
<path d="M48.7292 41.6458L36.3333 29.25L34.5625 16.8542L27.4792 9.77084H16.8542L23.9375 16.8542V23.9375H16.8542L9.77084 16.8542V27.4792L15.0833 34.5625L29.25 36.3333L41.6458 48.7292" stroke="white" stroke-width="1.5" stroke-miterlimit="10" stroke-linecap="square" stroke-linejoin="bevel"/>
<path d="M59.3542 52.2708L71.75 64.6667L84.1458 66.4375L91.2292 73.5208V84.1458L84.1458 77.0625H77.0625V84.1458L84.1458 91.2292H73.5208L66.4375 85.9167L64.6667 71.75L52.2708 59.3542" fill="url(#paint3_linear_2334_73005)"/>
<path d="M59.3542 52.2708L71.75 64.6667L84.1458 66.4375L91.2292 73.5208V84.1458L84.1458 77.0625H77.0625V84.1458L84.1458 91.2292H73.5208L66.4375 85.9167L64.6667 71.75L52.2708 59.3542" stroke="white" stroke-width="1.5" stroke-miterlimit="10" stroke-linecap="square" stroke-linejoin="bevel"/>
<path d="M29.25 62.8958L38.1042 71.75" stroke="white" stroke-width="1.5" stroke-miterlimit="10" stroke-linecap="round" stroke-linejoin="bevel"/>
<defs>
<linearGradient id="paint0_linear_2334_73005" x1="29.2146" y1="52.3417" x2="29.2146" y2="91.2292" gradientUnits="userSpaceOnUse">
<stop stopColor="white" stop-opacity="0.8"/>
<stop offset="1" stopColor="white" stop-opacity="0"/>
</linearGradient>
<linearGradient id="paint1_linear_2334_73005" x1="81.4896" y1="9.77084" x2="81.4896" y2="29.25" gradientUnits="userSpaceOnUse">
<stop stopColor="white" stop-opacity="0.8"/>
<stop offset="1" stopColor="white" stop-opacity="0"/>
</linearGradient>
<linearGradient id="paint2_linear_2334_73005" x1="29.25" y1="9.77084" x2="29.25" y2="48.7292" gradientUnits="userSpaceOnUse">
<stop stopColor="white" stop-opacity="0.8"/>
<stop offset="1" stopColor="white" stop-opacity="0"/>
</linearGradient>
<linearGradient id="paint3_linear_2334_73005" x1="59.4998" y1="56.4994" x2="90.9998" y2="90.9994" gradientUnits="userSpaceOnUse">
<stop stopColor="white" stop-opacity="0"/>
<stop offset="1" stopColor="white" stop-opacity="0.8"/>
</linearGradient>
</defs>
</svg>
