<svg width="40" height="40" viewBox="0 0 40 40" fill="none" xmlns="http://www.w3.org/2000/svg">
<rect width="40" height="40" rx="8" fill="white" fillOpacity="0.1"/>
<path d="M28 15H19" stroke="white" stroke-width="2" stroke-linecap="round" stroke-linejoin="round"/>
<path d="M22 25H13" stroke="white" stroke-width="2" stroke-linecap="round" stroke-linejoin="round"/>
<path d="M25 28C26.6569 28 28 26.6569 28 25C28 23.3431 26.6569 22 25 22C23.3431 22 22 23.3431 22 25C22 26.6569 23.3431 28 25 28Z" stroke="white" stroke-width="2" stroke-linecap="round" stroke-linejoin="round"/>
<path d="M15 18C16.6569 18 18 16.6569 18 15C18 13.3431 16.6569 12 15 12C13.3431 12 12 13.3431 12 15C12 16.6569 13.3431 18 15 18Z" stroke="white" stroke-width="2" stroke-linecap="round" stroke-linejoin="round"/>
</svg>
