<svg width="101" height="100" viewBox="0 0 101 100" fill="none" xmlns="http://www.w3.org/2000/svg">
<path d="M40.0869 18.6341V9.48785H59.0082V18.6341V19.1753L59.5218 19.3459C63.7441 20.7479 67.5788 23.0165 70.8191 25.9445L71.226 26.3123L71.6998 26.0359L79.5374 21.4645L89.0038 38.0291L81.1604 42.6041L80.6952 42.8755L80.8037 43.4031C81.2416 45.5318 81.4716 47.7382 81.4716 50C81.4716 52.2618 81.2416 54.4682 80.8037 56.5969L80.6952 57.1245L81.1604 57.3958L89.0038 61.9707L79.5374 78.5356L71.6998 73.9642L71.2261 73.6878L70.8191 74.0556C67.5788 76.9835 63.7441 79.252 59.5218 80.654L59.0082 80.8246V81.3658V90.5121H40.0869V81.3658V80.8246L39.5733 80.654C35.351 79.252 31.5164 76.9835 28.276 74.0555L27.869 73.6878L27.3953 73.9642L19.5578 78.5356L10.0915 61.9707L17.9347 57.3958L18.3999 57.1245L18.2915 56.5969C17.8537 54.4681 17.6235 52.2617 17.6235 50C17.6235 47.7383 17.8537 45.5318 18.2915 43.403L18.3999 42.8755L17.9347 42.6041L10.0914 38.0291L19.5578 21.4645L27.3953 26.0359L27.8691 26.3123L28.276 25.9445C31.5165 23.0165 35.351 20.7479 39.5733 19.3459L40.0869 19.1753V18.6341ZM49.5471 63.1286C56.7357 63.1286 62.5499 57.2437 62.5499 50C62.5499 42.7563 56.7357 36.8713 49.5471 36.8713C42.3585 36.8713 36.5443 42.7563 36.5443 50C36.5443 57.2437 42.3585 63.1286 49.5471 63.1286Z" fill="url(#paint0_linear_2334_72954)" stroke="white" stroke-width="1.5"/>
<defs>
<linearGradient id="paint0_linear_2334_72954" x1="49.5476" y1="8.73785" x2="49.5476" y2="91.2621" gradientUnits="userSpaceOnUse">
<stop stopColor="white" stop-opacity="0.8"/>
<stop offset="1" stopColor="white" stop-opacity="0"/>
</linearGradient>
</defs>
</svg>
