<svg
classname="relative h-full"
viewBox="0 0 59 59"
fill="none"
xmlns="http://www.w3.org/2000/svg"
>
<rect width="59" height="59" rx="29.5" fill="white" fillOpacity="0.2" />
<rect
x="6"
y="6"
width="47"
height="47"
rx="23.5"
fill="white"
fillOpacity="0.2"
/>
<rect
x="18.9416"
y="23.0754"
width="21.6558"
height="17.6262"
fill="white"
fillOpacity="0.2"
/>
<path
d="M25.2575 17.7885V14.9156H26.8223V17.7885"
stroke="#F4F4F5"
strokeWidth="1.38"
strokeMiterlimit="10"
/>
<path
d="M31.9577 17.7885V14.9156H33.5224V17.7885"
stroke="#F4F4F5"
strokeWidth="1.38"
strokeMiterlimit="10"
/>
<path
d="M35.0769 13.6215H23.9231C23.563 13.6215 23.2711 13.8947 23.2711 14.2318C23.2711 14.5688 23.563 14.842 23.9231 14.842H35.0769C35.437 14.842 35.7289 14.5688 35.7289 14.2318C35.7289 13.8947 35.437 13.6215 35.0769 13.6215Z"
stroke="#F4F4F5"
strokeWidth="1.38"
strokeMiterlimit="10"
/>
<path
d="M19.5509 40.5844C19.8331 43.0128 22.0306 44.9031 24.7003 44.9031H34.3C36.9697 44.9031 39.1672 43.0128 39.4495 40.5844"
fill="white"
fillOpacity="0.2"
/>
<path
d="M19.5509 40.5844C19.8331 43.0128 22.0306 44.9031 24.7003 44.9031H34.3C36.9697 44.9031 39.1672 43.0128 39.4495 40.5844"
stroke="#F4F4F5"
strokeWidth="1.38"
strokeMiterlimit="10"
/>
<path
d="M39.4805 23.083V22.7305C39.4805 20.0525 37.1613 17.8817 34.3002 17.8817H24.7005C21.8394 17.8817 19.5201 20.0525 19.5201 22.7305V23.083"
fill="white"
fillOpacity="0.2"
/>
<path
d="M39.4805 23.083V22.7305C39.4805 20.0525 37.1613 17.8817 34.3002 17.8817H24.7005C21.8394 17.8817 19.5201 20.0525 19.5201 22.7305V23.083"
stroke="#F4F4F5"
strokeWidth="1.38"
strokeMiterlimit="10"
/>
<path
d="M39.48 38.4436V25.2244"
stroke="#F4F4F5"
strokeWidth="1.38"
strokeMiterlimit="10"
/>
<path
d="M19.5194 25.2244V38.4436"
stroke="#F4F4F5"
strokeWidth="1.38"
strokeMiterlimit="10"
/>
<path
d="M39.48 25.2254H40.2552C40.525 25.2254 40.7438 25.0205 40.7438 24.768V23.5422C40.7438 23.2896 40.525 23.0848 40.2552 23.0848H39.48"
stroke="#F4F4F5"
strokeWidth="1.38"
strokeMiterlimit="10"
/>
<path
d="M19.5196 23.0848H18.7445C18.4747 23.0848 18.2558 23.2896 18.2558 23.5422V24.768C18.2558 25.0205 18.4747 25.2254 18.7445 25.2254H19.5196"
stroke="#F4F4F5"
strokeWidth="1.38"
strokeMiterlimit="10"
/>
<path
d="M19.5196 38.4432H18.7445C18.4747 38.4432 18.2558 38.648 18.2558 38.9006V40.1264C18.2558 40.3789 18.4747 40.5838 18.7445 40.5838H19.5505"
stroke="#F4F4F5"
strokeWidth="1.38"
strokeMiterlimit="10"
/>
<path
d="M39.4493 40.5838H40.2553C40.5251 40.5838 40.744 40.3789 40.744 40.1264V38.9006C40.744 38.648 40.5251 38.4432 40.2553 38.4432H39.4802"
stroke="#F4F4F5"
strokeWidth="1.38"
strokeMiterlimit="10"
/>
</svg>