<svg width="55" height="56" viewBox="0 0 55 56" fill="none" xmlns="http://www.w3.org/2000/svg">
<g clip-path="url(#clip0_4111_79197)">
<path d="M27.477 5.08337C14.827 5.08337 4.58325 15.35 4.58325 28C4.58325 40.65 14.827 50.9167 27.477 50.9167C40.1499 50.9167 50.4166 40.65 50.4166 28C50.4166 15.35 40.1499 5.08337 27.477 5.08337ZM27.4999 46.3334C17.3708 46.3334 9.16658 38.1292 9.16658 28C9.16658 17.8709 17.3708 9.66671 27.4999 9.66671C37.6291 9.66671 45.8332 17.8709 45.8332 28C45.8332 38.1292 37.6291 46.3334 27.4999 46.3334Z" fill="white"/>
<path d="M28.6458 16.5416H25.2083V30.2916L37.2395 37.5104L38.9583 34.6916L28.6458 28.5729V16.5416Z" fill="white"/>
</g>
<defs>
<clipPath id="clip0_4111_79197">
<rect width="55" height="55" fill="white" transform="translate(0 0.5)"/>
</clipPath>
</defs>
</svg>
