<svg width="41" height="41" viewBox="0 0 41 41" fill="none" xmlns="http://www.w3.org/2000/svg">
<rect x="0.5" y="0.5" width="40" height="40" rx="8" fill="white" fillOpacity="0.1"/>
<path d="M18.5 10.5H22.5" stroke="white" stroke-width="2" stroke-linecap="round" stroke-linejoin="round"/>
<path d="M20.5 22.5V18.5" stroke="white" stroke-width="2" stroke-linecap="round" stroke-linejoin="round"/>
<path d="M12.5 21.5C12.7449 19.556 13.6947 17.7694 15.1692 16.4791C16.6438 15.1889 18.5407 14.4846 20.5 14.5C21.794 14.5014 23.0684 14.8166 24.2139 15.4188C25.3593 16.0209 26.3416 16.8919 27.0764 17.957C27.8113 19.0222 28.2768 20.2497 28.433 21.5343C28.5892 22.8189 28.4315 24.1222 27.9733 25.3324C27.5152 26.5426 26.7703 27.6236 25.8025 28.4827C24.8348 29.3418 23.6731 29.9533 22.4171 30.2648C21.1611 30.5763 19.8482 30.5784 18.5912 30.271C17.3342 29.9637 16.1705 29.3559 15.2 28.5L12.5 26.1" stroke="white" stroke-width="2" stroke-linecap="round" stroke-linejoin="round"/>
<path d="M17.5 25.5H12.5V30.5" stroke="white" stroke-width="2" stroke-linecap="round" stroke-linejoin="round"/>
</svg>
