<svg width="66" height="66" viewBox="0 0 66 66" fill="none" xmlns="http://www.w3.org/2000/svg">
<path d="M27.5834 5.91675H38.4167" stroke="white" stroke-width="5.41667" stroke-linecap="round" stroke-linejoin="round"/>
<path d="M33 38.4166V27.5833" stroke="white" stroke-width="5.41667" stroke-linecap="round" stroke-linejoin="round"/>
<path d="M11.3334 35.7083C11.9965 30.4432 14.5689 25.6046 18.5626 22.1101C22.5563 18.6156 27.6935 16.7083 33 16.7499C36.5047 16.7537 39.9562 17.6075 43.0585 19.2382C46.1607 20.869 48.821 23.2279 50.8112 26.1127C52.8014 28.9975 54.0622 32.322 54.4852 35.8011C54.9083 39.2802 54.4811 42.81 53.2403 46.0877C51.9994 49.3654 49.982 52.2931 47.361 54.6198C44.74 56.9465 41.5938 58.6027 38.1921 59.4463C34.7904 60.2898 31.2349 60.2956 27.8305 59.4631C24.4261 58.6307 21.2744 56.9847 18.6459 54.6666L11.3334 48.1666" stroke="white" stroke-width="5.41667" stroke-linecap="round" stroke-linejoin="round"/>
<path d="M24.875 46.5417H11.3334V60.0834" stroke="white" stroke-width="5.41667" stroke-linecap="round" stroke-linejoin="round"/>
</svg>
